<?xml version="1.0" encoding="utf-8"?>
<svg viewBox="-0.459 -0.688 123.27 31.736" xmlns="http://www.w3.org/2000/svg">
  <g transform="matrix(1, 0, 0, 1, 2.629287, 1.835092)">
    <path d="M98.062 0l-4.624 7.503h7.024V26h8.62V7.503H117V0H98.062zm-25.75 0v26h8.778v-8.022h8.93v-7.28h-8.93V7.502h9.283L95.063 0h-22.75zM60.126 26h8.938V0h-8.938v26zm-11.1-26L47.15 13.895 43.783 0h-7.129l-3.368 13.895L31.415 0H22.75l4.278 26h9.561l3.63-11.674L43.85 26h9.562l4.276-26h-8.663zM.604 0v7.504h7.49L0 20.523V26h21.545v-7.502H11.243L22.75 0H.605z" style="fill: rgb(255, 255, 255);"/>
  </g>
</svg>